<?xml version="1.0" encoding="UTF-8"?>
<svg version="1.1" xmlns="http://www.w3.org/2000/svg" width="2805" height="2805">
<path d="M0 0 C0.5976416 0.37431152 1.1952832 0.74862305 1.81103516 1.13427734 C5.27664014 3.32819872 8.64764274 5.63742729 12 8 C13.00426025 8.70310303 13.00426025 8.70310303 14.02880859 9.42041016 C24.10826313 16.49784915 33.75230249 23.86727311 43 32 C43.73347656 32.63421875 44.46695313 33.2684375 45.22265625 33.921875 C47.16037178 35.60148528 49.08038033 37.29976543 51 39 C51.67289063 39.58007812 52.34578125 40.16015625 53.0390625 40.7578125 C65.12570135 51.34919706 77.10467146 62.72608359 86.984375 75.42578125 C88.87451729 77.83974204 90.8510903 80.15558108 92.86523438 82.46630859 C160.95477014 160.95174315 188.8628413 268.77152429 182.49609375 373.01171875 C181.90266255 380.37605077 181.04086026 387.68631754 180 395 C179.75056641 396.77383057 179.75056641 396.77383057 179.49609375 398.58349609 C167.62282162 479.99236658 131.49624374 554.45864319 76 615 C75.49678223 615.55365234 74.99356445 616.10730469 74.47509766 616.67773438 C62.9689751 629.32934015 62.9689751 629.32934015 57.06640625 634.24609375 C54.94459005 636.04703037 52.91572844 637.93218383 50.88671875 639.83642578 C43.92415334 646.34696417 36.59061332 652.24179653 29 658 C27.94232422 658.81041748 27.94232422 658.81041748 26.86328125 659.63720703 C-21.90409666 696.90424997 -80.11670592 722.34634562 -141 731 C-141 731.99 -141 732.98 -141 734 C-143.36450603 735.18225301 -145.15805015 735.29708155 -147.79296875 735.54296875 C-230.32852804 743.8070943 -303.94656348 778.48654708 -364.4375 834.75 C-365.0876709 835.35166992 -365.7378418 835.95333984 -366.40771484 836.57324219 C-370.31826644 840.24773429 -373.91799011 844.08465097 -377.41235352 848.15625 C-379.46306469 850.53776173 -381.60685776 852.82666471 -383.75 855.125 C-389.52936102 861.47968203 -394.82453246 868.14770827 -400 875 C-400.5146582 875.67949707 -401.02931641 876.35899414 -401.55957031 877.05908203 C-410.21856297 888.56663557 -417.86061058 900.4984784 -425 913 C-425.50418457 913.87672363 -426.00836914 914.75344727 -426.52783203 915.65673828 C-470.24212384 992.11166122 -484.11618616 1086.29991808 -463 1172 C-461.48047197 1177.31332168 -459.74698855 1182.54633051 -457.97314453 1187.77929688 C-432.20500625 1264.6007913 -442.10943766 1351.98052156 -477.44287109 1423.92236328 C-487.60934122 1444.01620498 -500.00338625 1462.40487413 -514 1480 C-514.45503906 1480.57508301 -514.91007812 1481.15016602 -515.37890625 1481.74267578 C-522.21431035 1490.28948143 -529.85621951 1498.0586098 -537.5625 1505.8125 C-538.04555603 1506.3009137 -538.52861206 1506.78932739 -539.02630615 1507.2925415 C-545.66784629 1513.98989528 -552.58816598 1520.16161135 -560 1526 C-560.607229 1526.48686279 -561.21445801 1526.97372559 -561.84008789 1527.4753418 C-579.40390946 1541.51589008 -598.68133086 1553.39177138 -618.98291016 1563.04101562 C-620.31384652 1563.67378227 -621.64174492 1564.31298412 -622.96630859 1564.95898438 C-652.30014672 1579.20334014 -684.67198321 1587.52421204 -717 1591 C-717.78713379 1591.0942627 -718.57426758 1591.18852539 -719.38525391 1591.28564453 C-795.32198708 1599.4946242 -874.54260584 1576.13366845 -934.07910156 1528.55078125 C-949.36498183 1516.21017227 -964.35210466 1503.07836776 -977 1488 C-977.45503906 1487.45875488 -977.91007812 1486.91750977 -978.37890625 1486.35986328 C-991.89069439 1470.2174233 -1003.54253023 1453.26871242 -1014 1435 C-1014.4031543 1434.2997168 -1014.80630859 1433.59943359 -1015.22167969 1432.87792969 C-1041.2066872 1387.26571275 -1053.21367503 1334.14325962 -1053.25 1281.9375 C-1053.25101212 1280.6203299 -1053.25101212 1280.6203299 -1053.25204468 1279.27655029 C-1053.20789844 1242.86787134 -1046.96972979 1207.42355208 -1034.91796875 1173.03125 C-1032.74635242 1166.58156541 -1031.50816271 1160.07521863 -1030.375 1153.375 C-1030.16262695 1152.14950439 -1029.95025391 1150.92400879 -1029.73144531 1149.66137695 C-1028.11426168 1140.13064936 -1026.8281307 1130.62942677 -1026 1121 C-1025.83371094 1119.31390625 -1025.83371094 1119.31390625 -1025.6640625 1117.59375 C-1018.02919468 1027.62611843 -1047.7761869 933.65972863 -1105.78125 864.62109375 C-1106.5134375 863.75613281 -1107.245625 862.89117188 -1108 862 C-1109.19109375 860.53240234 -1109.19109375 860.53240234 -1110.40625 859.03515625 C-1117.01385863 850.98919819 -1124.22434804 843.56136719 -1131.5625 836.1875 C-1132.04519348 835.69963013 -1132.52788696 835.21176025 -1133.02520752 834.70910645 C-1139.66902861 828.00917534 -1146.60451775 821.8620871 -1154 816 C-1155.26628711 814.96333213 -1156.53086169 813.92456539 -1157.79296875 812.8828125 C-1205.77081043 773.73206291 -1263.8347646 748.50251566 -1324.85424805 738.7355957 C-1331.33627895 737.69101795 -1337.64943101 736.40779534 -1344.00244141 734.75219727 C-1348.18772824 733.70195547 -1352.40846125 732.86565561 -1356.63720703 732.01074219 C-1425.49605948 717.97394119 -1493.72169621 684.23339324 -1542.8515625 633.12109375 C-1544.99466465 630.92985093 -1544.99466465 630.92985093 -1547.5625 628.9609375 C-1549.799712 627.16112913 -1551.54112381 625.38367856 -1553.375 623.1875 C-1555.61380982 620.56268848 -1557.89034494 618.0801308 -1560.375 615.6875 C-1564.50692047 611.61054964 -1568.09566145 607.13469605 -1571.71386719 602.60253906 C-1573.07167009 600.91069809 -1574.44489406 599.23223176 -1575.8203125 597.5546875 C-1634.07153582 526.1729079 -1664.19970327 435.80630179 -1664.25 344.0625 C-1664.25067474 342.9539566 -1664.25134949 341.84541321 -1664.25204468 340.70327759 C-1664.23461399 322.62016006 -1663.56292648 304.92534996 -1661 287 C-1660.75056641 285.22834473 -1660.75056641 285.22834473 -1660.49609375 283.42089844 C-1654.05846081 239.2754266 -1640.61227227 196.49714039 -1619.98876953 156.90820312 C-1618.97504729 154.95184436 -1617.98491414 152.9846715 -1616.99609375 151.015625 C-1604.95265634 127.32869594 -1589.58306219 105.19801707 -1572.54101562 84.84960938 C-1571.14010827 83.16816544 -1569.76264421 81.47063812 -1568.390625 79.765625 C-1561.57665265 71.42621279 -1554.02595421 63.81420527 -1546.4375 56.1875 C-1545.90660767 55.65134064 -1545.37571533 55.11518127 -1544.82873535 54.56277466 C-1537.88598554 47.56684372 -1530.71854897 41.14784517 -1523 35 C-1521.89818988 34.0651992 -1520.80186205 33.12383575 -1519.71484375 32.171875 C-1448.51793459 -29.91263088 -1350.49798634 -58.02884605 -1257.20678711 -52.53564453 C-1175.75200937 -46.75494208 -1098.29187837 -13.86071901 -1037 40 C-1036.09894531 40.78890625 -1035.19789063 41.5778125 -1034.26953125 42.390625 C-1027.40855 48.54518646 -1020.8565558 55.01184705 -1014.3125 61.5 C-1012.99378906 62.7991333 -1012.99378906 62.7991333 -1011.6484375 64.12451172 C-1006.41278326 69.35327694 -1001.59707642 74.76458681 -996.97192383 80.54003906 C-995.39627769 82.50564641 -993.79706148 84.42680483 -992.13671875 86.3203125 C-985.31237455 94.13511176 -979.2768962 102.36257163 -973.42138672 110.92285156 C-972.10381572 112.84828854 -970.77360429 114.76436021 -969.44140625 116.6796875 C-962.83554259 126.27866903 -957.04533287 136.3161988 -951.39013672 146.49853516 C-950.52750976 148.05077888 -949.66022114 149.6004536 -948.78564453 151.14599609 C-926.35161032 190.82649825 -912.8140034 236.45557164 -905.75 281.3125 C-905.59893799 282.26366699 -905.44787598 283.21483398 -905.29223633 284.19482422 C-902.4103608 303.62513446 -901.59128714 323.00343272 -901.625 342.625 C-901.62581573 344.42432983 -901.62581573 344.42432983 -901.62664795 346.26000977 C-901.66914061 366.75303119 -902.7405567 386.76742739 -906 407 C-906.1041925 407.65863037 -906.20838501 408.31726074 -906.31573486 408.99584961 C-911.36136236 440.68351521 -920.62802151 470.93712295 -932.25 500.7890625 C-946.5152618 537.61881216 -954.954132 575.75967802 -959 615 C-959.103125 615.95583984 -959.20625 616.91167969 -959.3125 617.89648438 C-960.39486044 629.51639681 -960.24390113 641.21550993 -960.25 652.875 C-960.25067474 654.03339386 -960.25134949 655.19178772 -960.25204468 656.38528442 C-960.16714255 748.29461519 -930.68256105 852.22049431 -865.4375 919.8125 C-829.47188689 954.3948203 -782.01877619 970.74800951 -732.68359375 970.21484375 C-704.4387997 969.65598768 -677.76736598 961.21262385 -653 948 C-652.38882324 947.67773438 -651.77764648 947.35546875 -651.14794922 947.0234375 C-637.76686748 939.91191472 -626.39130305 930.8411899 -615.47949219 920.40771484 C-614.0132538 919.01261079 -612.52708995 917.64132188 -611.0390625 916.26953125 C-553.00309267 861.73441628 -525.10325586 762.0988894 -520 685 C-519.94360352 684.14825195 -519.88720703 683.29650391 -519.82910156 682.41894531 C-515.67773742 616.26732617 -527.27292018 552.10418869 -551.07617188 490.38623047 C-562.21421159 461.45253675 -570.50017784 432.07998463 -575.3125 401.4375 C-575.45977539 400.50164062 -575.60705078 399.56578125 -575.75878906 398.6015625 C-578.6112543 379.06852184 -579.40819964 359.59458171 -579.375 339.875 C-579.37418427 338.04065399 -579.37418427 338.04065399 -579.37335205 336.16925049 C-579.24361323 272.41974761 -564.52193168 209.60097376 -534.984375 152.89941406 C-533.98408513 150.96929125 -533.00690796 149.02861077 -532.03125 147.0859375 C-522.84233447 129.01571259 -511.95832698 111.73171896 -499.41748047 95.80273438 C-497.97425495 93.96725776 -496.55021112 92.11811225 -495.12890625 90.265625 C-490.39307644 84.12404956 -485.53169615 78.17801748 -480.265625 72.4765625 C-479.01718222 71.1118854 -477.77662882 69.73928562 -476.57324219 68.3347168 C-471.71409495 62.66401944 -466.5280929 57.34192906 -461.24951172 52.06420898 C-459.76106763 50.57358385 -458.28082723 49.07512983 -456.80078125 47.57617188 C-450.52732407 41.26636021 -443.97210908 35.54264795 -437 30 C-435.97240151 29.13666941 -434.94898628 28.2682789 -433.93359375 27.390625 C-352.40700973 -42.52575692 -238.23725727 -69.5789738 0 0 Z " fill="#00135A" transform="translate(2149,636)"/>
<path d="M0 0 C0.83756836 0.40798828 1.67513672 0.81597656 2.53808594 1.23632812 C21.32102387 10.4415839 38.77879926 21.7961994 55 35 C55.51401367 35.41781738 56.02802734 35.83563477 56.55761719 36.26611328 C73.67230803 50.255193 89.41378085 65.52473198 103 83 C103.74757568 83.95543701 103.74757568 83.95543701 104.51025391 84.93017578 C135.45923896 124.79306033 155.7578292 171.46232907 165 221 C165.15307617 221.81001465 165.30615234 222.6200293 165.46386719 223.45458984 C178.12474555 292.49194117 165.67846805 365.22241948 133 427 C132.62262695 427.71752441 132.24525391 428.43504883 131.85644531 429.17431641 C125.95218043 440.32278707 119.39955578 450.78730693 112 461 C111.51241211 461.67836914 111.02482422 462.35673828 110.52246094 463.05566406 C104.59011429 471.27592551 98.4068909 479.02780679 91.44921875 486.40234375 C89.3988415 488.57698629 87.43556633 490.78671537 85.5 493.0625 C78.63993353 500.95897939 71.0587046 508.33633166 63 515 C62.49549316 515.41830078 61.99098633 515.83660156 61.47119141 516.26757812 C46.5704385 528.56444049 31.08315197 539.4057683 14.18261719 548.78320312 C12.24754043 549.86199759 10.32935338 550.96476044 8.4140625 552.078125 C-23.58735855 570.09265493 -61.49763673 580.80966859 -98 584 C-99.12535156 584.10957031 -100.25070312 584.21914062 -101.41015625 584.33203125 C-172.63175633 590.24744654 -247.22868028 569.21594243 -303 524 C-303.92941406 523.26265625 -304.85882813 522.5253125 -305.81640625 521.765625 C-322.89708468 508.06220731 -339.77427592 492.50463481 -353 475 C-353.93706145 473.79132654 -354.87459628 472.58301999 -355.8125 471.375 C-398.30824519 416.16135008 -421.19852132 348.68642231 -421.25 279 C-421.25101212 277.75627625 -421.25101212 277.75627625 -421.25204468 276.48742676 C-421.1418149 190.4422698 -385.99256981 111.80506981 -325.48291016 51.29541016 C-320.60450573 46.50533119 -315.35573782 42.24416959 -310 38 C-308.29152434 36.56266916 -306.58319401 35.12516555 -304.875 33.6875 C-228.69418719 -28.29011042 -122.9892097 -44.46441356 0 0 Z " fill="#00135A" transform="translate(719,1639)"/>
<path d="M0 0 C0.9293335 0.63204346 0.9293335 0.63204346 1.87744141 1.27685547 C10.72590753 7.32460613 18.94164417 13.94104861 27 21 C27.78117187 21.66902344 28.56234375 22.33804687 29.3671875 23.02734375 C42.19502038 34.23505241 54.69412021 46.41685044 65 60 C66.15242188 61.44439453 66.15242188 61.44439453 67.328125 62.91796875 C111.01483366 117.88845902 133.56988715 186.62132591 133.3125 256.5625 C133.31034485 257.61925934 133.3081897 258.67601868 133.30596924 259.76480103 C133.25390088 275.69516071 132.8266083 291.28234475 130 307 C129.69400879 308.72259033 129.69400879 308.72259033 129.38183594 310.47998047 C120.1961994 360.76030972 101.0692501 408.83741618 69 449 C68.19820312 450.01320313 67.39640625 451.02640625 66.5703125 452.0703125 C61.59706005 458.24815898 56.34965518 464.1479884 51 470 C50.14535156 470.9590625 49.29070313 471.918125 48.41015625 472.90625 C38.44256027 484.04958525 27.54212626 493.66031378 15.66552734 502.72412109 C14.13870452 503.89374526 12.62527796 505.08080312 11.11328125 506.26953125 C-47.75358617 551.8359349 -124.55386083 570.78536623 -198 562 C-228.57921865 558.03960257 -258.27487061 549.50883563 -286 536 C-286.91539551 535.55527344 -287.83079102 535.11054688 -288.77392578 534.65234375 C-315.11965038 521.7115329 -340.99438896 504.81217453 -361.4609375 483.5390625 C-363.06527604 481.93472396 -364.74928695 480.50471736 -366.5 479.0625 C-369.70021203 476.36609075 -372.38094586 473.41267983 -375.08203125 470.22265625 C-376.3973311 468.69840856 -377.75159637 467.20718263 -379.13671875 465.74609375 C-431.09658642 410.8661674 -457.6027624 332.59219499 -457.3125 257.9375 C-457.31067719 256.95687592 -457.30885437 255.97625183 -457.30697632 254.96591187 C-457.25762555 239.1307462 -456.56816954 223.6545593 -454 208 C-453.82839355 206.92878906 -453.65678711 205.85757812 -453.47998047 204.75390625 C-441.49015864 131.97922364 -402.56333306 59.0034072 -343 14 C-341.79132654 13.06293855 -340.58301999 12.12540372 -339.375 11.1875 C-256.23752887 -52.80566016 -144.128928 -67.95615633 0 0 Z " fill="#00135A" transform="translate(2373,1660)"/>
</svg>
